<?xml version="1.0" standalone="no"?>
<!DOCTYPE svg PUBLIC "-//W3C//DTD SVG 20010904//EN"
 "http://www.w3.org/TR/2001/REC-SVG-20010904/DTD/svg10.dtd">
<svg version="1.0" xmlns="http://www.w3.org/2000/svg"
 width="512.000000pt" height="512.000000pt" viewBox="0 0 512.000000 512.000000"
 preserveAspectRatio="xMidYMid meet">
<metadata>
Created by potrace 1.14, written by Peter Selinger 2001-2017
</metadata>
<g transform="translate(0.000000,512.000000) scale(0.100000,-0.100000)"
fill="#000000" stroke="none">
<path d="M1535 5106 c-58 -13 -189 -61 -210 -77 -38 -28 -116 -62 -215 -94
-200 -64 -250 -89 -288 -143 -68 -95 -47 -307 41 -425 54 -70 150 -105 219
-78 34 13 111 -16 222 -83 142 -84 213 -107 342 -110 40 -1 76 -5 79 -8 3 -3
-8 -54 -24 -114 -36 -129 -69 -284 -87 -409 -3 -22 -11 -45 -18 -50 -7 -6 -16
-19 -19 -30 -7 -20 -16 -20 -457 -20 -398 1 -450 -1 -455 -15 -2 -8 -7 -37
-10 -65 -8 -67 -15 -125 -20 -155 -2 -14 -6 -52 -10 -85 -3 -33 -8 -73 -10
-90 -2 -16 -9 -70 -15 -120 -5 -49 -12 -106 -14 -125 -2 -19 -9 -73 -15 -120
-6 -47 -14 -107 -17 -135 -3 -27 -7 -63 -10 -80 -2 -16 -10 -91 -19 -165 -8
-74 -17 -148 -19 -165 -4 -29 -13 -98 -21 -160 -2 -16 -7 -57 -11 -90 -3 -33
-8 -67 -9 -75 -2 -8 -6 -46 -10 -85 -4 -38 -9 -79 -11 -90 -2 -11 -6 -45 -9
-75 -3 -30 -7 -66 -9 -80 -3 -23 -10 -78 -22 -170 -2 -19 -7 -57 -9 -85 -3
-27 -12 -104 -21 -170 -8 -66 -17 -140 -20 -165 -9 -80 -13 -113 -23 -195 -6
-44 -13 -107 -17 -140 -3 -33 -12 -103 -19 -155 -26 -193 2 -242 170 -299 80
-27 195 -57 330 -86 l110 -25 1635 3 c1619 2 1635 2 1670 22 22 13 44 38 60
70 23 47 25 59 25 223 l0 173 75 40 c41 22 145 77 230 121 85 44 167 89 183
100 34 25 54 64 52 104 -3 33 -353 705 -386 741 -41 42 -102 36 -210 -24 -4
-2 -7 34 -8 79 -2 46 -4 106 -6 133 -2 28 -6 113 -10 190 -4 77 -8 169 -10
205 -2 36 -6 137 -10 225 -3 88 -8 180 -10 205 -2 25 -7 113 -10 195 -25 564
-25 558 -43 590 -10 16 -33 38 -52 50 -34 19 -51 20 -439 20 -320 0 -405 3
-409 13 -2 7 -12 21 -22 30 -9 9 -21 35 -25 57 -4 22 -9 51 -12 65 -2 14 -13
61 -24 105 -114 453 -269 734 -488 881 l-63 42 31 16 c39 21 71 55 71 77 0 24
-34 42 -115 64 -152 39 -425 134 -553 191 -29 13 -55 24 -57 24 -2 0 -32 13
-67 29 -35 16 -79 34 -98 41 -56 18 -208 21 -275 6z m1142 -843 c64 -107 153
-285 153 -306 0 -7 4 -17 9 -23 18 -18 91 -258 111 -362 9 -52 2 -87 -21 -102
-10 -7 -1057 -5 -1064 2 -18 18 -3 152 40 348 8 41 18 87 22 103 6 30 18 34
48 14 32 -21 69 -20 95 3 33 29 63 34 97 16 50 -26 114 3 135 60 10 28 20 36
53 45 46 12 105 54 105 74 0 7 14 23 30 35 17 12 30 28 30 36 0 8 11 19 24 24
35 13 66 58 66 96 0 19 2 34 4 34 3 0 31 -44 63 -97z"/>
</g>
</svg>
